<svg width="36" height="36" viewBox="0 0 36 36" fill="none" xmlns="http://www.w3.org/2000/svg">
<path d="M12.9375 31C10.5875 31 8.5935 30.181 6.9555 28.543C5.3175 26.905 4.499 24.912 4.5 22.564C4.5 21.439 4.7125 20.364 5.1375 19.339C5.5625 18.314 6.175 17.401 6.975 16.6L17.1 6.475C17.9 5.675 18.8125 5.0625 19.8375 4.6375C20.8625 4.2125 21.9375 4 23.0625 4C25.4125 4 27.4065 4.8185 29.0445 6.4555C30.6825 8.0925 31.501 10.0865 31.5 12.4375C31.5 13.5625 31.2875 14.6375 30.8625 15.6625C30.4375 16.6875 29.825 17.6 29.025 18.4L18.9 28.525C18.1 29.325 17.1875 29.9375 16.1625 30.3625C15.1375 30.7875 14.0625 31 12.9375 31ZM22.5 21L27 16.5C27.5 16 27.8125 15.2125 28.0875 14.5375C28.3625 13.8625 28.5 13.1625 28.5 12.4375C28.5 10.9375 27.969 9.6565 26.907 8.5945C25.845 7.5325 24.5635 7.001 23.0625 7C22.3375 7 21.6375 7.1375 20.9625 7.4125C20.2875 7.6875 19.5 8 19 8.5L15 12.5L22.5 21ZM13 28C13.725 28 14.6875 28.1919 15.225 27.7794C15.9 27.5044 16.5 27 17 26.5L21 22.5L13 14.5L9.075 18.7C8.575 19.2 8.1875 19.7875 7.9125 20.4625C7.6375 21.1375 7.5 21.8375 7.5 22.5625C7.5 24.0625 8.0315 25.344 9.0945 26.407C10.1575 27.47 11.501 28.001 13 28Z" fill="#696969"/>
</svg>
