<svg width="36" height="36" viewBox="0 0 36 36" fill="none" xmlns="http://www.w3.org/2000/svg">
<path fill-rule="evenodd" clip-rule="evenodd" d="M7.49904 13.5C7.49904 10.7152 8.60529 8.04451 10.5744 6.07538C12.5436 4.10625 15.2143 3 17.999 3C20.7838 3 23.4545 4.10625 25.4237 6.07538C27.3928 8.04451 28.499 10.7152 28.499 13.5V19.146L31.232 24.612C31.3578 24.8636 31.4173 25.1431 31.4046 25.4241C31.392 25.7051 31.3077 25.9782 31.1598 26.2175C31.0119 26.4568 30.8053 26.6543 30.5596 26.7912C30.3139 26.9282 30.0373 27 29.756 27H23.81C23.4764 28.2874 22.7247 29.4275 21.6729 30.2414C20.6212 31.0553 19.3289 31.4969 17.999 31.4969C16.6691 31.4969 15.3769 31.0553 14.3251 30.2414C13.2734 29.4275 12.5217 28.2874 12.188 27H6.24204C5.96076 27 5.68413 26.9282 5.43844 26.7912C5.19275 26.6543 4.98615 26.4568 4.83826 26.2175C4.69037 25.9782 4.6061 25.7051 4.59346 25.4241C4.58082 25.1431 4.64023 24.8636 4.76604 24.612L7.49904 19.146V13.5ZM15.401 27C15.6644 27.456 16.0431 27.8347 16.4991 28.098C16.9551 28.3613 17.4725 28.4999 17.999 28.4999C18.5256 28.4999 19.0429 28.3613 19.499 28.098C19.955 27.8347 20.3337 27.456 20.597 27H15.401ZM17.999 6C16.0099 6 14.1023 6.79017 12.6957 8.1967C11.2892 9.60322 10.499 11.5109 10.499 13.5V19.146C10.499 19.6115 10.3907 20.0706 10.1825 20.487L8.42754 24H27.572L25.817 20.487C25.6084 20.0707 25.4995 19.6116 25.499 19.146V13.5C25.499 11.5109 24.7089 9.60322 23.3023 8.1967C21.8958 6.79017 19.9882 6 17.999 6Z" fill="#696969"/>
</svg>
