<svg width="24" height="24" viewBox="0 0 24 24" fill="none" xmlns="http://www.w3.org/2000/svg">
<path d="M13 11C13 9.93913 12.5786 8.92172 11.8284 8.17157C11.0783 7.42143 10.0609 7 9 7C7.93913 7 6.92172 7.42143 6.17157 8.17157C5.42143 8.92172 5 9.93913 5 11C5 12.0609 5.42143 13.0783 6.17157 13.8284C6.92172 14.5786 7.93913 15 9 15C10.0609 15 11.0783 14.5786 11.8284 13.8284C12.5786 13.0783 13 12.0609 13 11Z" stroke="#0067D8" stroke-width="2" stroke-linecap="round" stroke-linejoin="round"/>
<path d="M11.039 7.558C10.9128 6.66047 11.0952 5.74669 11.5563 4.96637C12.0173 4.18604 12.7297 3.58544 13.5768 3.26293C14.4238 2.94043 15.3553 2.91516 16.2185 3.19125C17.0818 3.46734 17.8257 4.02844 18.3284 4.78261C18.8311 5.53679 19.0628 6.43933 18.9855 7.34238C18.9081 8.24543 18.5264 9.09545 17.9028 9.75319C17.2793 10.4109 16.4508 10.8374 15.5531 10.9627C14.6555 11.088 13.7419 10.9048 12.962 10.443M15 21C15 19.4087 14.3679 17.8826 13.2426 16.7574C12.1174 15.6321 10.5913 15 9 15C7.4087 15 5.88258 15.6321 4.75736 16.7574C3.63214 17.8826 3 19.4087 3 21" stroke="#0067D8" stroke-width="2" stroke-linecap="round" stroke-linejoin="round"/>
<path d="M21 17C21 15.4087 20.3679 13.8826 19.2426 12.7574C18.1174 11.6321 16.5913 11 15 11" stroke="#0067D8" stroke-width="2" stroke-linecap="round" stroke-linejoin="round"/>
</svg>
