<svg width="36" height="36" viewBox="0 0 36 36" fill="none" xmlns="http://www.w3.org/2000/svg">
<path d="M19.5 16.5C19.5 14.9087 18.8679 13.3826 17.7426 12.2574C16.6174 11.1321 15.0913 10.5 13.5 10.5C11.9087 10.5 10.3826 11.1321 9.25736 12.2574C8.13214 13.3826 7.5 14.9087 7.5 16.5C7.5 18.0913 8.13214 19.6174 9.25736 20.7426C10.3826 21.8679 11.9087 22.5 13.5 22.5C15.0913 22.5 16.6174 21.8679 17.7426 20.7426C18.8679 19.6174 19.5 18.0913 19.5 16.5Z" stroke="#696969" stroke-width="2.56" stroke-linecap="round" stroke-linejoin="round"/>
<path d="M16.5585 11.337C16.3692 9.99069 16.6428 8.62003 17.3344 7.44954C18.026 6.27906 19.0946 5.37814 20.3651 4.89439C21.6357 4.41064 23.0329 4.37272 24.3278 4.78687C25.6227 5.20101 26.7386 6.04265 27.4926 7.17391C28.2467 8.30517 28.5942 9.65898 28.4782 11.0136C28.3622 12.3681 27.7896 13.6432 26.8543 14.6298C25.9189 15.6164 24.6762 16.2561 23.3297 16.4441C21.9832 16.6321 20.6128 16.3572 19.443 15.6645M22.5 31.5C22.5 29.113 21.5518 26.8239 19.864 25.136C18.1761 23.4482 15.8869 22.5 13.5 22.5C11.113 22.5 8.82386 23.4482 7.13604 25.136C5.44821 26.8239 4.5 29.113 4.5 31.5" stroke="#696969" stroke-width="2.56" stroke-linecap="round" stroke-linejoin="round"/>
<path d="M31.5 25.5C31.5 23.1131 30.5518 20.8239 28.864 19.136C27.1761 17.4482 24.8869 16.5 22.5 16.5" stroke="#696969" stroke-width="2.56" stroke-linecap="round" stroke-linejoin="round"/>
</svg>
