<svg width="33" height="33" viewBox="0 0 33 33" fill="none" xmlns="http://www.w3.org/2000/svg">
<mask id="path-1-inside-1_49_646" fill="white">
<path d="M13.8645 22.971L7.5 16.605L9.621 14.484L13.8645 18.726L22.3485 10.2405L24.471 12.363L13.8645 22.971Z"/>
</mask>
<path d="M13.8645 22.971L7.5 16.605L9.621 14.484L13.8645 18.726L22.3485 10.2405L24.471 12.363L13.8645 22.971Z" fill="#1FC16B"/>
<path d="M13.8645 22.971L8.91417 27.9202L13.8643 32.8714L18.8146 27.9204L13.8645 22.971ZM7.5 16.605L2.55025 11.6553L-2.39891 16.6044L2.54967 21.5542L7.5 16.605ZM9.621 14.484L14.5699 9.53338L9.62013 4.58538L4.67125 9.53426L9.621 14.484ZM13.8645 18.726L8.91563 23.6766L13.8658 28.6251L18.8147 23.6753L13.8645 18.726ZM22.3485 10.2405L27.2983 5.29076L22.3481 0.340566L17.3983 5.29119L22.3485 10.2405ZM24.471 12.363L29.4211 17.3124L34.3701 12.3627L29.4207 7.41326L24.471 12.363ZM13.8645 22.971L18.8148 18.0218L12.4503 11.6558L7.5 16.605L2.54967 21.5542L8.91417 27.9202L13.8645 22.971ZM7.5 16.605L12.4497 21.5548L14.5707 19.4338L9.621 14.484L4.67125 9.53426L2.55025 11.6553L7.5 16.605ZM9.621 14.484L4.67213 19.4346L8.91563 23.6766L13.8645 18.726L18.8134 13.7754L14.5699 9.53338L9.621 14.484ZM13.8645 18.726L18.8147 23.6753L27.2987 15.1898L22.3485 10.2405L17.3983 5.29119L8.91431 13.7767L13.8645 18.726ZM22.3485 10.2405L17.3988 15.1902L19.5213 17.3127L24.471 12.363L29.4207 7.41326L27.2983 5.29076L22.3485 10.2405ZM24.471 12.363L19.5209 7.41361L8.9144 18.0216L13.8645 22.971L18.8146 27.9204L29.4211 17.3124L24.471 12.363Z" fill="#1FC16B" mask="url(#path-1-inside-1_49_646)"/>
<mask id="path-3-inside-2_49_646" fill="white">
<path fill-rule="evenodd" clip-rule="evenodd" d="M0 16.5C0 7.3875 7.3875 0 16.5 0C25.6125 0 33 7.3875 33 16.5C33 25.6125 25.6125 33 16.5 33C7.3875 33 0 25.6125 0 16.5ZM16.5 30C14.7271 30 12.9717 29.6508 11.3338 28.9724C9.69587 28.2939 8.20764 27.2995 6.95405 26.0459C5.70046 24.7923 4.70606 23.3041 4.02762 21.6662C3.34919 20.0283 3 18.2728 3 16.5C3 14.7271 3.34919 12.9717 4.02762 11.3338C4.70606 9.69587 5.70046 8.20764 6.95405 6.95405C8.20764 5.70046 9.69587 4.70606 11.3338 4.02762C12.9717 3.34919 14.7271 3 16.5 3C20.0804 3 23.5142 4.42231 26.0459 6.95405C28.5777 9.48579 30 12.9196 30 16.5C30 20.0804 28.5777 23.5142 26.0459 26.0459C23.5142 28.5777 20.0804 30 16.5 30Z"/>
</mask>
<path fill-rule="evenodd" clip-rule="evenodd" d="M0 16.5C0 7.3875 7.3875 0 16.5 0C25.6125 0 33 7.3875 33 16.5C33 25.6125 25.6125 33 16.5 33C7.3875 33 0 25.6125 0 16.5ZM16.5 30C14.7271 30 12.9717 29.6508 11.3338 28.9724C9.69587 28.2939 8.20764 27.2995 6.95405 26.0459C5.70046 24.7923 4.70606 23.3041 4.02762 21.6662C3.34919 20.0283 3 18.2728 3 16.5C3 14.7271 3.34919 12.9717 4.02762 11.3338C4.70606 9.69587 5.70046 8.20764 6.95405 6.95405C8.20764 5.70046 9.69587 4.70606 11.3338 4.02762C12.9717 3.34919 14.7271 3 16.5 3C20.0804 3 23.5142 4.42231 26.0459 6.95405C28.5777 9.48579 30 12.9196 30 16.5C30 20.0804 28.5777 23.5142 26.0459 26.0459C23.5142 28.5777 20.0804 30 16.5 30Z" fill="#1FC16B"/>
<path d="M16.5 30V37V30ZM3 16.5H-4H3ZM16.5 3V10V3ZM30 16.5H23H30ZM0 16.5H7C7 11.2535 11.2535 7 16.5 7V0V-7C3.5215 -7 -7 3.5215 -7 16.5H0ZM16.5 0V7C21.7465 7 26 11.2535 26 16.5H33H40C40 3.5215 29.4785 -7 16.5 -7V0ZM33 16.5H26C26 21.7465 21.7465 26 16.5 26V33V40C29.4785 40 40 29.4785 40 16.5H33ZM16.5 33V26C11.2535 26 7 21.7465 7 16.5H0H-7C-7 29.4785 3.5215 40 16.5 40V33ZM16.5 30V23C15.6464 23 14.8012 22.8319 14.0126 22.5052L11.3338 28.9724L8.65498 35.4395C11.1422 36.4697 13.8079 37 16.5 37V30ZM11.3338 28.9724L14.0126 22.5052C13.2239 22.1785 12.5074 21.6998 11.9038 21.0962L6.95405 26.0459L2.00431 30.9957C3.9079 32.8993 6.16781 34.4093 8.65498 35.4395L11.3338 28.9724ZM6.95405 26.0459L11.9038 21.0962C11.3002 20.4926 10.8214 19.776 10.4948 18.9874L4.02762 21.6662L-2.43953 24.345C-1.40931 26.8322 0.100708 29.0921 2.00431 30.9957L6.95405 26.0459ZM4.02762 21.6662L10.4948 18.9874C10.1681 18.1988 10 17.3536 10 16.5H3H-4C-4 19.1921 -3.46975 21.8578 -2.43953 24.345L4.02762 21.6662ZM3 16.5H10C10 15.6464 10.1681 14.8012 10.4948 14.0126L4.02762 11.3338L-2.43953 8.65498C-3.46975 11.1422 -4 13.8079 -4 16.5H3ZM4.02762 11.3338L10.4948 14.0126C10.8214 13.2239 11.3002 12.5074 11.9038 11.9038L6.95405 6.95405L2.00431 2.00431C0.100706 3.90791 -1.40931 6.16781 -2.43953 8.65498L4.02762 11.3338ZM6.95405 6.95405L11.9038 11.9038C12.5074 11.3002 13.2239 10.8214 14.0126 10.4948L11.3338 4.02762L8.65498 -2.43953C6.16781 -1.40931 3.90791 0.100706 2.00431 2.00431L6.95405 6.95405ZM11.3338 4.02762L14.0126 10.4948C14.8012 10.1681 15.6464 10 16.5 10V3V-4C13.8079 -4 11.1422 -3.46975 8.65498 -2.43953L11.3338 4.02762ZM16.5 3V10C18.2239 10 19.8772 10.6848 21.0962 11.9038L26.0459 6.95405L30.9957 2.00431C27.1512 -1.84019 21.9369 -4 16.5 -4V3ZM26.0459 6.95405L21.0962 11.9038C22.3152 13.1228 23 14.7761 23 16.5H30H37C37 11.0631 34.8402 5.8488 30.9957 2.00431L26.0459 6.95405ZM30 16.5H23C23 18.2239 22.3152 19.8772 21.0962 21.0962L26.0459 26.0459L30.9957 30.9957C34.8402 27.1512 37 21.9369 37 16.5H30ZM26.0459 26.0459L21.0962 21.0962C19.8772 22.3152 18.2239 23 16.5 23V30V37C21.9369 37 27.1512 34.8402 30.9957 30.9957L26.0459 26.0459Z" fill="#1FC16B" mask="url(#path-3-inside-2_49_646)"/>
</svg>
