<svg width="36" height="36" viewBox="0 0 36 36" fill="none" xmlns="http://www.w3.org/2000/svg">
<path d="M29.8498 18.99C29.6094 18.7163 29.4767 18.3644 29.4767 18C29.4767 17.6357 29.6094 17.2838 29.8498 17.01L31.7698 14.85C31.9814 14.614 32.1128 14.3171 32.1451 14.0018C32.1775 13.6865 32.1091 13.3691 31.9498 13.095L28.9498 7.90503C28.7922 7.63131 28.5522 7.41434 28.264 7.28505C27.9758 7.15577 27.6541 7.12076 27.3448 7.18503L24.5248 7.75503C24.166 7.82917 23.7925 7.76941 23.4747 7.58703C23.1569 7.40464 22.9168 7.11225 22.7998 6.76503L21.8848 4.02003C21.7842 3.72209 21.5925 3.46332 21.3368 3.28029C21.0811 3.09725 20.7743 2.99921 20.4598 3.00003H14.4598C14.1327 2.98295 13.809 3.07342 13.5382 3.2576C13.2673 3.44178 13.0642 3.70955 12.9598 4.02003L12.1198 6.76503C12.0028 7.11225 11.7628 7.40464 11.445 7.58703C11.1272 7.76941 10.7537 7.82917 10.3948 7.75503L7.49985 7.18503C7.20667 7.1436 6.90779 7.18986 6.64087 7.31799C6.37394 7.44611 6.1509 7.65037 5.99984 7.90503L2.99984 13.095C2.83658 13.366 2.76318 13.6817 2.79012 13.9969C2.81706 14.3121 2.94297 14.6107 3.14984 14.85L5.05484 17.01C5.29532 17.2838 5.42795 17.6357 5.42795 18C5.42795 18.3644 5.29532 18.7163 5.05484 18.99L3.14984 21.15C2.94297 21.3894 2.81706 21.688 2.79012 22.0032C2.76318 22.3184 2.83658 22.6341 2.99984 22.905L5.99984 28.095C6.15749 28.3687 6.39752 28.5857 6.68572 28.715C6.97392 28.8443 7.29558 28.8793 7.60485 28.815L10.4248 28.245C10.7837 28.1709 11.1572 28.2306 11.475 28.413C11.7928 28.5954 12.0328 28.8878 12.1498 29.235L13.0648 31.98C13.1692 32.2905 13.3723 32.5583 13.6432 32.7425C13.914 32.9266 14.2377 33.0171 14.5648 33H20.5648C20.8793 33.0008 21.1861 32.9028 21.4418 32.7198C21.6975 32.5367 21.8892 32.278 21.9898 31.98L22.9048 29.235C23.0218 28.8878 23.2619 28.5954 23.5797 28.413C23.8975 28.2306 24.271 28.1709 24.6298 28.245L27.4498 28.815C27.7591 28.8793 28.0808 28.8443 28.369 28.715C28.6572 28.5857 28.8972 28.3687 29.0548 28.095L32.0548 22.905C32.2141 22.631 32.2825 22.3136 32.2501 21.9983C32.2178 21.683 32.0864 21.386 31.8748 21.15L29.8498 18.99ZM27.6148 21L28.8148 22.35L26.8948 25.68L25.1248 25.32C24.0445 25.0992 22.9207 25.2827 21.9667 25.8357C21.0128 26.3887 20.2951 27.2728 19.9498 28.32L19.3798 30H15.5398L14.9998 28.29C14.6546 27.2428 13.9369 26.3587 12.983 25.8057C12.029 25.2527 10.9052 25.0692 9.82484 25.29L8.05484 25.65L6.10485 22.335L7.30484 20.985C8.04278 20.16 8.45074 19.0919 8.45074 17.985C8.45074 16.8781 8.04278 15.8101 7.30484 14.985L6.10485 13.635L8.02484 10.335L9.79485 10.695C10.8752 10.9159 11.999 10.7323 12.953 10.1793C13.9069 9.6263 14.6246 8.74226 14.9698 7.69503L15.5398 6.00003H19.3798L19.9498 7.71003C20.2951 8.75726 21.0128 9.6413 21.9667 10.1943C22.9207 10.7473 24.0445 10.9309 25.1248 10.71L26.8948 10.35L28.8148 13.68L27.6148 15.03C26.8852 15.8532 26.4823 16.915 26.4823 18.015C26.4823 19.115 26.8852 20.1769 27.6148 21ZM17.4598 12C16.2732 12 15.1131 12.3519 14.1264 13.0112C13.1397 13.6705 12.3707 14.6076 11.9166 15.7039C11.4624 16.8003 11.3436 18.0067 11.5751 19.1706C11.8066 20.3345 12.3781 21.4036 13.2172 22.2427C14.0563 23.0818 15.1254 23.6532 16.2893 23.8847C17.4532 24.1162 18.6596 23.9974 19.7559 23.5433C20.8523 23.0892 21.7894 22.3201 22.4487 21.3334C23.108 20.3468 23.4598 19.1867 23.4598 18C23.4598 16.4087 22.8277 14.8826 21.7025 13.7574C20.5773 12.6322 19.0511 12 17.4598 12ZM17.4598 21C16.8665 21 16.2865 20.8241 15.7931 20.4944C15.2998 20.1648 14.9153 19.6963 14.6882 19.1481C14.4611 18.5999 14.4017 17.9967 14.5175 17.4148C14.6332 16.8328 14.919 16.2983 15.3385 15.8787C15.7581 15.4591 16.2926 15.1734 16.8746 15.0577C17.4565 14.9419 18.0597 15.0013 18.6079 15.2284C19.1561 15.4554 19.6246 15.84 19.9543 16.3333C20.2839 16.8267 20.4598 17.4067 20.4598 18C20.4598 18.7957 20.1438 19.5587 19.5812 20.1213C19.0186 20.684 18.2555 21 17.4598 21Z" fill="#696969"/>
</svg>
