<svg width="66" height="48" viewBox="0 0 66 48" fill="none" xmlns="http://www.w3.org/2000/svg">
<path d="M29.6296 47.4074H16.2963C11.8025 47.4074 7.96346 45.8518 4.77926 42.7407C1.59506 39.6296 0.00197531 35.8272 0 31.3333C0 27.4815 1.16049 24.0494 3.48148 21.037C5.80247 18.0247 8.83951 16.0988 12.5926 15.2593C13.8272 10.716 16.2963 7.03704 20 4.22222C23.7037 1.40741 27.9012 0 32.5926 0C38.3704 0 43.2721 2.01284 47.2978 6.03852C51.3235 10.0642 53.3353 14.9649 53.3333 20.7407C56.7407 21.1358 59.5684 22.6054 61.8163 25.1496C64.0642 27.6938 65.1872 30.6686 65.1852 34.0741C65.1852 37.7778 63.8894 40.9264 61.2978 43.52C58.7062 46.1136 55.5575 47.4094 51.8519 47.4074H35.5556V26.2222L40.2963 30.8148L44.4444 26.6667L32.5926 14.8148L20.7407 26.6667L24.8889 30.8148L29.6296 26.2222V47.4074Z" fill="#5CA1FE"/>
</svg>
